<svg xmlns="http://www.w3.org/2000/svg" xmlns:xlink="http://www.w3.org/1999/xlink" width="15cm" height="5cm" viewBox="12 27 284 93"><g id="Background"><g><ellipse style="fill:#fff;fill-opacity:1;stroke-opacity:1;stroke-width:2;stroke:#000" cx="53.467" cy="56.666" rx="20.567" ry="24.534"/><text font-size="12.8" style="fill:#000;fill-opacity:1;stroke:none;text-anchor:middle;font-family:sans-serif;font-style:normal;font-weight:400" x="53.467" y="60.566"><tspan x="53.467" y="60.566">0</tspan></text></g><g><ellipse style="fill:#fff;fill-opacity:1;stroke-opacity:1;stroke-width:2;stroke:#000" cx="126.123" cy="56.614" rx="21.089" ry="27.586"/><text font-size="12.8" style="fill:#000;fill-opacity:1;stroke:none;text-anchor:middle;font-family:sans-serif;font-style:normal;font-weight:400" x="126.123" y="60.514"><tspan x="126.123" y="60.514">1</tspan></text></g><g><line style="fill:none;stroke-opacity:1;stroke-width:2;stroke:#000" x1="76.035" x2="94.328" y1="59.2" y2="58.256"/><polygon style="fill:#000;fill-opacity:1;stroke-opacity:1;stroke-width:2;stroke:#000" fill-rule="evenodd" points="101.818 57.869 92.089 63.378 94.328 58.256 91.573 53.391"/></g><g><ellipse style="fill:#fff;fill-opacity:1;stroke-opacity:1;stroke-width:6;stroke:#000" cx="273.494" cy="56.25" rx="20.46" ry="24.95"/><text font-size="12.8" style="fill:#000;fill-opacity:1;stroke:none;text-anchor:middle;font-family:sans-serif;font-style:normal;font-weight:400" x="273.494" y="60.15"><tspan x="273.494" y="60.15">3</tspan></text></g><g><line style="fill:none;stroke-opacity:1;stroke-width:2;stroke:#000" x1="147.212" x2="168.568" y1="56.614" y2="55.977"/><polygon style="fill:#000;fill-opacity:1;stroke-opacity:1;stroke-width:2;stroke:#000" fill-rule="evenodd" points="176.065 55.753 166.219 61.049 168.568 55.977 165.92 51.053"/></g><g><ellipse style="fill:#fff;fill-opacity:1;stroke-opacity:1;stroke-width:2;stroke:#000" cx="199.389" cy="55.686" rx="21.089" ry="27.586"/><text font-size="12.8" style="fill:#000;fill-opacity:1;stroke:none;text-anchor:middle;font-family:sans-serif;font-style:normal;font-weight:400" x="199.389" y="59.586"><tspan x="199.389" y="59.586">2</tspan></text></g><text font-size="12.8" style="fill:#000;fill-opacity:1;stroke:none;text-anchor:start;font-family:sans-serif;font-style:normal;font-weight:400" x="154" y="46"><tspan x="154" y="46">+</tspan></text><g><line style="fill:none;stroke-opacity:1;stroke-width:2;stroke:#000" x1="220.478" x2="243.299" y1="55.686" y2="56.081"/><polygon style="fill:#000;fill-opacity:1;stroke-opacity:1;stroke-width:2;stroke:#000" fill-rule="evenodd" points="250.798 56.211 240.713 61.037 243.299 56.081 240.886 51.039"/></g><text font-size="12.8" style="fill:#000;fill-opacity:1;stroke:none;text-anchor:start;font-family:sans-serif;font-style:normal;font-weight:400" x="228" y="44"><tspan x="228" y="44">E</tspan></text><g><path style="fill:none;stroke-opacity:1;stroke-width:2;stroke:#000" d="M 134.194,82.1003 A 131.283,131.283 0 0 0 265.104,86.1008"/><polygon style="fill:#000;fill-opacity:1;stroke-opacity:1;stroke-width:2;stroke:#000" fill-rule="evenodd" points="271.606 82.399 265.844 91.98 265.275 86.419 260.484 83.538"/></g><text font-size="12.8" style="fill:#000;fill-opacity:1;stroke:none;text-anchor:start;font-family:sans-serif;font-style:normal;font-weight:400" x="193" y="117"><tspan x="193" y="117">λ</tspan></text><text font-size="12.8" style="fill:#000;fill-opacity:1;stroke:none;text-anchor:start;font-family:sans-serif;font-style:normal;font-weight:400" x="13" y="57"><tspan x="13" y="57">E</tspan></text><text font-size="12.8" style="fill:#000;fill-opacity:1;stroke:none;text-anchor:start;font-family:sans-serif;font-style:normal;font-weight:400" x="83" y="49"><tspan x="83" y="49">a</tspan></text></g></svg>