<svg xmlns="http://www.w3.org/2000/svg" xmlns:svg="http://www.w3.org/2000/svg" id="svg2" width="600" height="400" version="1.0"><metadata id="metadata137"/><defs id="defs4"><marker id="Arrow2Mend" orient="auto" refX="0" refY="0" style="overflow:visible"><path d="M 8.7185878,4.0337352 L -2.2072895,0.016013256 L 8.7185884,-4.0017078 C 6.97309,-1.6296469 6.9831476,1.6157441 8.7185878,4.0337352 z" transform="scale(-0.6,-0.6)" style="font-size:12px;fill-rule:evenodd;stroke-width:.625;stroke-linejoin:round" id="path3355"/></marker><marker id="Arrow2Mstart" orient="auto" refX="0" refY="0" style="overflow:visible"><path d="M 8.7185878,4.0337352 L -2.2072895,0.016013256 L 8.7185884,-4.0017078 C 6.97309,-1.6296469 6.9831476,1.6157441 8.7185878,4.0337352 z" transform="scale(0.6,0.6)" style="font-size:12px;fill-rule:evenodd;stroke-width:.625;stroke-linejoin:round" id="path3358"/></marker><marker id="Arrow2Send" orient="auto" refX="0" refY="0" style="overflow:visible"><path d="M 8.7185878,4.0337352 L -2.2072895,0.016013256 L 8.7185884,-4.0017078 C 6.97309,-1.6296469 6.9831476,1.6157441 8.7185878,4.0337352 z" transform="matrix(-0.3,0,0,-0.3,0.69,0)" style="font-size:12px;fill-rule:evenodd;stroke-width:.625;stroke-linejoin:round" id="path3349"/></marker><marker id="Arrow2Sstart" orient="auto" refX="0" refY="0" style="overflow:visible"><path d="M 8.7185878,4.0337352 L -2.2072895,0.016013256 L 8.7185884,-4.0017078 C 6.97309,-1.6296469 6.9831476,1.6157441 8.7185878,4.0337352 z" transform="matrix(0.3,0,0,0.3,-0.69,0)" style="font-size:12px;fill-rule:evenodd;stroke-width:.625;stroke-linejoin:round" id="path3352"/></marker></defs><g id="layer1" transform="translate(-87.443031,-425.3046)"><rect width="100.368" height="39.75" x="304.714" y="427.798" style="fill:#fff;fill-opacity:1;stroke:#000;stroke-width:2;stroke-linecap:round;stroke-linejoin:miter;stroke-miterlimit:4;stroke-dasharray:none;stroke-dashoffset:0;stroke-opacity:1" id="rect2170"/><path d="M 365.69711 508.78522 A 12.421777 12.421777 0 1 1 340.85355,508.78522 A 12.421777 12.421777 0 1 1 365.69711 508.78522 z" transform="translate(1.6227376,1.493767)" style="fill:#fff;fill-opacity:1;stroke:#000;stroke-width:2;stroke-linecap:round;stroke-linejoin:miter;stroke-miterlimit:4;stroke-dasharray:none;stroke-dashoffset:0;stroke-opacity:1" id="path3143"/><path d="M 349.68092,515.49613 L 360.11522,505.06184" style="fill:none;fill-rule:evenodd;stroke:#000;stroke-width:2;stroke-linecap:round;stroke-linejoin:miter;stroke-miterlimit:4;stroke-dasharray:none;stroke-opacity:1" id="path3145"/><path d="M 360.11522,515.49613 L 349.68092,505.06184" style="fill:none;fill-rule:evenodd;stroke:#000;stroke-width:2;stroke-linecap:round;stroke-linejoin:miter;stroke-miterlimit:4;stroke-dasharray:none;stroke-opacity:1" id="path3147"/><rect width="470.04" height="39.75" x="124.847" y="553.01" style="fill:#fff;fill-opacity:1;stroke:#000;stroke-width:2;stroke-linecap:round;stroke-linejoin:miter;stroke-miterlimit:4;stroke-dasharray:none;stroke-dashoffset:0;stroke-opacity:1" id="rect3149"/><rect width="79.996" height="60.121" x="245.09" y="633.006" style="fill:#fff;fill-opacity:1;stroke:#000;stroke-width:2;stroke-linecap:round;stroke-linejoin:miter;stroke-miterlimit:4;stroke-dasharray:none;stroke-dashoffset:0;stroke-opacity:1" id="rect3151"/><rect width="79.996" height="60.121" x="390.176" y="633.006" style="fill:#fff;fill-opacity:1;stroke:#000;stroke-width:2;stroke-linecap:round;stroke-linejoin:miter;stroke-miterlimit:4;stroke-dasharray:none;stroke-dashoffset:0;stroke-opacity:1" id="rect3153"/><rect width="149.558" height="39.75" x="90.066" y="733.374" style="fill:#fff;fill-opacity:1;stroke:#000;stroke-width:2;stroke-linecap:round;stroke-linejoin:miter;stroke-miterlimit:4;stroke-dasharray:none;stroke-dashoffset:0;stroke-opacity:1" id="rect3155"/><rect width="140.117" height="39.75" x="544.703" y="733.374" style="fill:#fff;fill-opacity:1;stroke:#000;stroke-width:2;stroke-linecap:round;stroke-linejoin:miter;stroke-miterlimit:4;stroke-dasharray:none;stroke-dashoffset:0;stroke-opacity:1" id="rect3157"/><rect width="134.652" height="84.468" x="250.058" y="733.374" style="fill:#fff;fill-opacity:1;stroke:#000;stroke-width:1.99999988;stroke-linecap:round;stroke-linejoin:miter;stroke-miterlimit:4;stroke-dasharray:none;stroke-dashoffset:0;stroke-opacity:1" id="rect3159"/><path d="M 319.86867,752.50363 L 319.86867,817.59375" style="fill:none;fill-rule:evenodd;stroke:#000;stroke-width:2;stroke-linecap:butt;stroke-linejoin:miter;stroke-miterlimit:4;stroke-dasharray:none;stroke-opacity:1" id="path3163"/><rect width="134.652" height="84.468" x="400.113" y="738.343" style="fill:#fff;fill-opacity:1;stroke:#000;stroke-width:2;stroke-linecap:round;stroke-linejoin:miter;stroke-miterlimit:4;stroke-dasharray:none;stroke-dashoffset:0;stroke-opacity:1" id="rect3180"/><path d="M 400.11335,757.72078 L 534.76542,757.72078" style="fill:none;fill-rule:evenodd;stroke:#000;stroke-width:2;stroke-linecap:butt;stroke-linejoin:miter;stroke-miterlimit:4;stroke-dasharray:none;stroke-opacity:1" id="path3182"/><path d="M 469.92374,757.47234 L 469.92374,822.56246" style="fill:none;fill-rule:evenodd;stroke:#000;stroke-width:2;stroke-linecap:butt;stroke-linejoin:miter;stroke-miterlimit:4;stroke-dasharray:none;stroke-opacity:1" id="path3184"/><rect width="134.652" height="84.468" x="394.648" y="733.374" style="fill:#fff;fill-opacity:1;stroke:#000;stroke-width:1.99999988;stroke-linecap:round;stroke-linejoin:miter;stroke-miterlimit:4;stroke-dasharray:none;stroke-dashoffset:0;stroke-opacity:1" id="rect3586"/><g id="g3902"><path d="M 353.90625,469.53125 L 353.90625,495.875 L 355.90625,495.875 L 355.90625,469.53125 L 353.90625,469.53125 z" style="fill:#000;fill-opacity:1;fill-rule:evenodd;stroke:none;stroke-width:2;stroke-linecap:butt;stroke-linejoin:miter;stroke-miterlimit:4;stroke-opacity:1" id="path3189"/><path d="M 350.05759,479.99786 L 354.87885,466.8868 L 359.70012,479.99786 C 356.85365,477.90326 352.95918,477.91533 350.05759,479.99786 z" style="font-size:12px;fill-rule:evenodd;stroke-width:.625;stroke-linejoin:round" id="path3908"/><path d="M 359.73855,485.40741 L 354.91729,498.51847 L 350.09602,485.40741 C 352.94249,487.50201 356.83696,487.48994 359.73855,485.40741 z" style="font-size:12px;fill-rule:evenodd;stroke-width:.625;stroke-linejoin:round" id="path3910"/></g><g id="g3892"><path d="M 353.90625,524.6875 L 353.90625,551.03125 L 355.90625,551.03125 L 355.90625,524.6875 L 353.90625,524.6875 z" style="fill:#000;fill-opacity:1;fill-rule:evenodd;stroke:none;stroke-width:2;stroke-linecap:butt;stroke-linejoin:miter;stroke-miterlimit:4;stroke-opacity:1" id="path3395"/><path d="M 350.05759,535.15055 L 354.87885,522.03949 L 359.70012,535.15055 C 356.85365,533.05595 352.95918,533.06802 350.05759,535.15055 z" style="font-size:12px;fill-rule:evenodd;stroke-width:.625;stroke-linejoin:round" id="path3898"/><path d="M 359.73855,540.5601 L 354.91729,553.67116 L 350.09602,540.5601 C 352.94249,542.6547 356.83696,542.64263 359.73855,540.5601 z" style="font-size:12px;fill-rule:evenodd;stroke-width:.625;stroke-linejoin:round" id="path3900"/></g><g id="g3832"><path d="M 353.40625,594.25 L 353.40625,731.375 L 355.40625,731.375 L 355.40625,594.25 L 353.40625,594.25 z" style="fill:#000;fill-opacity:1;fill-rule:evenodd;stroke:none;stroke-width:2;stroke-linecap:butt;stroke-linejoin:miter;stroke-miterlimit:4;stroke-opacity:1" id="path3397"/><path d="M 349.56073,604.7125 L 354.38199,591.60144 L 359.20326,604.7125 C 356.35679,602.6179 352.46232,602.62997 349.56073,604.7125 z" style="font-size:12px;fill-rule:evenodd;stroke-width:.625;stroke-linejoin:round" id="path3838"/><path d="M 359.24169,720.9243 L 354.42043,734.03536 L 349.59916,720.9243 C 352.44563,723.0189 356.3401,723.00683 359.24169,720.9243 z" style="font-size:12px;fill-rule:evenodd;stroke-width:.625;stroke-linejoin:round" id="path3840"/></g><g id="g3812"><path d="M 183.96875,594.25 L 183.96875,731.375 L 185.96875,731.375 L 185.96875,594.25 L 183.96875,594.25 z" style="fill:#000;fill-opacity:1;fill-rule:evenodd;stroke:none;stroke-width:2;stroke-linecap:butt;stroke-linejoin:miter;stroke-miterlimit:4;stroke-opacity:1" id="path3399"/><path d="M 180.12769,604.7125 L 184.94895,591.60144 L 189.77022,604.7125 C 186.92375,602.6179 183.02928,602.62997 180.12769,604.7125 z" style="font-size:12px;fill-rule:evenodd;stroke-width:.625;stroke-linejoin:round" id="path3818"/><path d="M 189.80865,720.9243 L 184.98739,734.03536 L 180.16612,720.9243 C 183.01259,723.0189 186.90706,723.00683 189.80865,720.9243 z" style="font-size:12px;fill-rule:evenodd;stroke-width:.625;stroke-linejoin:round" id="path3820"/></g><g id="g3852"><path d="M 494.03125,594.25 L 494.03125,731.375 L 496.03125,731.375 L 496.03125,594.25 L 494.03125,594.25 z" style="fill:#000;fill-opacity:1;fill-rule:evenodd;stroke:none;stroke-width:2;stroke-linecap:butt;stroke-linejoin:miter;stroke-miterlimit:4;stroke-opacity:1" id="path3401"/><path d="M 490.17525,604.7125 L 494.99651,591.60144 L 499.81778,604.7125 C 496.97131,602.6179 493.07684,602.62997 490.17525,604.7125 z" style="font-size:12px;fill-rule:evenodd;stroke-width:.625;stroke-linejoin:round" id="path3858"/><path d="M 499.85621,720.9243 L 495.03495,734.03536 L 490.21368,720.9243 C 493.06015,723.0189 496.95462,723.00683 499.85621,720.9243 z" style="font-size:12px;fill-rule:evenodd;stroke-width:.625;stroke-linejoin:round" id="path3860"/></g><g id="g3862"><path d="M 569.03125,594.25 L 569.03125,731.375 L 571.03125,731.375 L 571.03125,594.25 L 569.03125,594.25 z" style="fill:#000;fill-opacity:1;fill-rule:evenodd;stroke:none;stroke-width:2;stroke-linecap:butt;stroke-linejoin:miter;stroke-miterlimit:4;stroke-opacity:1" id="path3403"/><path d="M 565.20278,604.7125 L 570.02404,591.60144 L 574.84531,604.7125 C 571.99884,602.6179 568.10437,602.62997 565.20278,604.7125 z" style="font-size:12px;fill-rule:evenodd;stroke-width:.625;stroke-linejoin:round" id="path3868"/><path d="M 574.88374,720.9243 L 570.06248,734.03536 L 565.24121,720.9243 C 568.08768,723.0189 571.98215,723.00683 574.88374,720.9243 z" style="font-size:12px;fill-rule:evenodd;stroke-width:.625;stroke-linejoin:round" id="path3870"/></g><g id="g3842"><path d="M 429.1875,695.125 L 429.1875,731.375 L 431.1875,731.375 L 431.1875,695.125 L 429.1875,695.125 z" style="fill:#000;fill-opacity:1;fill-rule:evenodd;stroke:none;stroke-width:2;stroke-linecap:butt;stroke-linejoin:miter;stroke-miterlimit:4;stroke-opacity:1" id="path3405"/><path d="M 425.33346,705.57733 L 430.15472,692.46627 L 434.97599,705.57733 C 432.12952,703.48273 428.23505,703.4948 425.33346,705.57733 z" style="font-size:12px;fill-rule:evenodd;stroke-width:.625;stroke-linejoin:round" id="path3848"/><path d="M 435.01442,720.9243 L 430.19316,734.03536 L 425.37189,720.9243 C 428.21836,723.0189 432.11283,723.00683 435.01442,720.9243 z" style="font-size:12px;fill-rule:evenodd;stroke-width:.625;stroke-linejoin:round" id="path3850"/></g><g id="g3872"><path d="M 429.1875,594.25 L 429.1875,630.53125 L 431.1875,630.53125 L 431.1875,594.25 L 429.1875,594.25 z" style="fill:#000;fill-opacity:1;fill-rule:evenodd;stroke:none;stroke-width:2;stroke-linecap:butt;stroke-linejoin:miter;stroke-miterlimit:4;stroke-opacity:1" id="path3407"/><path d="M 425.33346,604.7125 L 430.15472,591.60144 L 434.97599,604.7125 C 432.12952,602.6179 428.23505,602.62997 425.33346,604.7125 z" style="font-size:12px;fill-rule:evenodd;stroke-width:.625;stroke-linejoin:round" id="path3878"/><path d="M 435.01442,620.05947 L 430.19316,633.17053 L 425.37189,620.05947 C 428.21836,622.15407 432.11283,622.142 435.01442,620.05947 z" style="font-size:12px;fill-rule:evenodd;stroke-width:.625;stroke-linejoin:round" id="path3880"/></g><g id="g3882"><path d="M 284.09375,594.25 L 284.09375,630.53125 L 286.09375,630.53125 L 286.09375,594.25 L 284.09375,594.25 z" style="fill:#000;fill-opacity:1;fill-rule:evenodd;stroke:none;stroke-width:2;stroke-linecap:butt;stroke-linejoin:miter;stroke-miterlimit:4;stroke-opacity:1" id="path3411"/><path d="M 280.24712,604.7125 L 285.06838,591.60144 L 289.88965,604.7125 C 287.04318,602.6179 283.14871,602.62997 280.24712,604.7125 z" style="font-size:12px;fill-rule:evenodd;stroke-width:.625;stroke-linejoin:round" id="path3888"/><path d="M 289.92808,620.05947 L 285.10682,633.17053 L 280.28555,620.05947 C 283.13202,622.15407 287.02649,622.142 289.92808,620.05947 z" style="font-size:12px;fill-rule:evenodd;stroke-width:.625;stroke-linejoin:round" id="path3890"/></g><g id="g3912"><path d="M 371.78125,509.28125 L 371.78125,511.28125 L 508.9375,511.28125 L 508.9375,509.28125 L 371.78125,509.28125 z" style="fill:#000;fill-opacity:1;fill-rule:evenodd;stroke:none;stroke-width:2;stroke-linecap:butt;stroke-linejoin:miter;stroke-miterlimit:4;stroke-opacity:1" id="path3413"/><path d="M 498.46581,505.43851 L 511.57687,510.25977 L 498.46581,515.08104 C 500.56041,512.23457 500.54834,508.3401 498.46581,505.43851 z" style="font-size:12px;fill-rule:evenodd;stroke-width:.625;stroke-linejoin:round" id="path3918"/><path d="M 382.25401,515.11947 L 369.14295,510.29821 L 382.25401,505.47694 C 380.15941,508.32341 380.17148,512.21788 382.25401,515.11947 z" style="font-size:12px;fill-rule:evenodd;stroke-width:.625;stroke-linejoin:round" id="path3920"/></g><text x="354.406" y="443.026" style="font-size:15.03704453px;font-style:normal;font-weight:400;text-align:center;text-anchor:middle;fill:#000;fill-opacity:1;stroke:none;stroke-width:1px;stroke-linecap:butt;stroke-linejoin:miter;stroke-opacity:1;font-family:Arial" id="text3415" xml:space="preserve"><tspan id="tspan3417" x="354.406" y="443.026">Main memory</tspan></text><text x="354.894" y="462.901" style="font-size:15.03704453px;font-style:normal;font-weight:400;text-align:center;text-anchor:middle;fill:#000;fill-opacity:1;stroke:none;stroke-width:1px;stroke-linecap:butt;stroke-linejoin:miter;stroke-opacity:1;font-family:Arial" id="text3419" xml:space="preserve"><tspan id="tspan3421" x="354.894" y="462.901">&lt;= 8 GB</tspan></text><text x="533.821" y="503.981" style="font-size:15.03704453px;font-style:normal;font-weight:400;text-align:center;text-anchor:middle;fill:#000;fill-opacity:1;stroke:none;stroke-width:1px;stroke-linecap:butt;stroke-linejoin:miter;stroke-opacity:1;font-family:Arial" id="text3423" xml:space="preserve"><tspan id="tspan3425" x="533.821" y="503.981">Other</tspan></text><text x="534.196" y="523.856" style="font-size:15.03704453px;font-style:normal;font-weight:400;text-align:center;text-anchor:middle;fill:#000;fill-opacity:1;stroke:none;stroke-width:1px;stroke-linecap:butt;stroke-linejoin:miter;stroke-opacity:1;font-family:Arial" id="text3427" xml:space="preserve"><tspan id="tspan3429" x="534.196" y="523.856">CPUs</tspan></text><text x="359.863" y="566.839" style="font-size:15.03704453px;font-style:normal;font-weight:400;text-align:center;text-anchor:middle;fill:#000;fill-opacity:1;stroke:none;stroke-width:1px;stroke-linecap:butt;stroke-linejoin:miter;stroke-opacity:1;font-family:Arial" id="text3445" xml:space="preserve"><tspan id="tspan3447" x="359.863" y="566.839">L2 unified</tspan></text><text x="359.114" y="586.714" style="font-size:15.03704453px;font-style:normal;font-weight:400;text-align:center;text-anchor:middle;fill:#000;fill-opacity:1;stroke:none;stroke-width:1px;stroke-linecap:butt;stroke-linejoin:miter;stroke-opacity:1;font-family:Arial" id="text3449" xml:space="preserve"><tspan id="tspan3451" x="359.114" y="586.714">1 MB 16-way</tspan></text><text x="284.944" y="646.765" style="font-size:15.03704453px;font-style:normal;font-weight:400;text-align:center;text-anchor:middle;fill:#000;fill-opacity:1;stroke:none;stroke-width:1px;stroke-linecap:butt;stroke-linejoin:miter;stroke-opacity:1;font-family:Arial" id="text3463" xml:space="preserve"><tspan id="tspan3465" x="284.944" y="646.765">L2 ITLB</tspan></text><text x="285.066" y="666.888" style="font-size:15.03704453px;font-style:normal;font-weight:400;text-align:center;text-anchor:middle;fill:#000;fill-opacity:1;stroke:none;stroke-width:1px;stroke-linecap:butt;stroke-linejoin:miter;stroke-opacity:1;font-family:Arial" id="text3467" xml:space="preserve"><tspan id="tspan3469" x="285.066" y="666.888">512 entries</tspan></text><text x="285.058" y="687.012" style="font-size:15.03704453px;font-style:normal;font-weight:400;text-align:center;text-anchor:middle;fill:#000;fill-opacity:1;stroke:none;stroke-width:1px;stroke-linecap:butt;stroke-linejoin:miter;stroke-opacity:1;font-family:Arial" id="text3471" xml:space="preserve"><tspan id="tspan3473" x="285.058" y="687.012">4-way</tspan></text><text x="430.031" y="646.765" style="font-size:15.03704453px;font-style:normal;font-weight:400;text-align:center;text-anchor:middle;fill:#000;fill-opacity:1;stroke:none;stroke-width:1px;stroke-linecap:butt;stroke-linejoin:miter;stroke-opacity:1;font-family:Arial" id="text3489" xml:space="preserve"><tspan id="tspan3491" x="430.031" y="646.765">L2 DTLB</tspan></text><text x="430.152" y="666.888" style="font-size:15.03704453px;font-style:normal;font-weight:400;text-align:center;text-anchor:middle;fill:#000;fill-opacity:1;stroke:none;stroke-width:1px;stroke-linecap:butt;stroke-linejoin:miter;stroke-opacity:1;font-family:Arial" id="text3493" xml:space="preserve"><tspan id="tspan3495" x="430.152" y="666.888">512 entries</tspan></text><text x="430.145" y="687.012" style="font-size:15.03704453px;font-style:normal;font-weight:400;text-align:center;text-anchor:middle;fill:#000;fill-opacity:1;stroke:none;stroke-width:1px;stroke-linecap:butt;stroke-linejoin:miter;stroke-opacity:1;font-family:Arial" id="text3497" xml:space="preserve"><tspan id="tspan3499" x="430.145" y="687.012">4-way</tspan></text><text x="164.61" y="747.079" style="font-size:15.03704453px;font-style:normal;font-weight:400;text-align:center;text-anchor:middle;fill:#000;fill-opacity:1;stroke:none;stroke-width:1px;stroke-linecap:butt;stroke-linejoin:miter;stroke-opacity:1;font-family:Arial" id="text3505" xml:space="preserve"><tspan id="tspan3507" x="164.61" y="747.079">L1 instruction cache</tspan></text><text x="164.628" y="767.202" style="font-size:15.03704453px;font-style:normal;font-weight:400;text-align:center;text-anchor:middle;fill:#000;fill-opacity:1;stroke:none;stroke-width:1px;stroke-linecap:butt;stroke-linejoin:miter;stroke-opacity:1;font-family:Arial" id="text3509" xml:space="preserve"><tspan id="tspan3511" x="164.628" y="767.202">64KB 2-way</tspan></text><text x="614.527" y="747.079" style="font-size:15.03704453px;font-style:normal;font-weight:400;text-align:center;text-anchor:middle;fill:#000;fill-opacity:1;stroke:none;stroke-width:1px;stroke-linecap:butt;stroke-linejoin:miter;stroke-opacity:1;font-family:Arial" id="text3523" xml:space="preserve"><tspan id="tspan3525" x="614.527" y="747.079">L1 data cache</tspan></text><text x="614.769" y="767.202" style="font-size:15.03704453px;font-style:normal;font-weight:400;text-align:center;text-anchor:middle;fill:#000;fill-opacity:1;stroke:none;stroke-width:1px;stroke-linecap:butt;stroke-linejoin:miter;stroke-opacity:1;font-family:Arial" id="text3527" xml:space="preserve"><tspan id="tspan3529" x="614.769" y="767.202">64KB 2-way 2 ports</tspan></text><text x="317.241" y="747.97" style="font-size:15.03704453px;font-style:normal;font-weight:400;text-align:center;text-anchor:middle;fill:#000;fill-opacity:1;stroke:none;stroke-width:1px;stroke-linecap:butt;stroke-linejoin:miter;stroke-opacity:1;font-family:Arial" id="text3531" xml:space="preserve"><tspan id="tspan3533" x="317.241" y="747.97">L1 ITLB</tspan></text><text x="285.151" y="770.707" style="font-size:15.03704453px;font-style:normal;font-weight:400;text-align:center;text-anchor:middle;fill:#000;fill-opacity:1;stroke:none;stroke-width:1px;stroke-linecap:butt;stroke-linejoin:miter;stroke-opacity:1;font-family:Arial" id="text3548" xml:space="preserve"><tspan id="tspan3550" x="285.151" y="770.707">4 KB</tspan></text><text x="284.813" y="790.83" style="font-size:15.03704453px;font-style:normal;font-weight:400;text-align:center;text-anchor:middle;fill:#000;fill-opacity:1;stroke:none;stroke-width:1px;stroke-linecap:butt;stroke-linejoin:miter;stroke-opacity:1;font-family:Arial" id="text3552" xml:space="preserve"><tspan id="tspan3554" x="284.813" y="790.83">32 entries</tspan></text><text x="284.839" y="810.954" style="font-size:15.03704453px;font-style:normal;font-weight:400;text-align:center;text-anchor:middle;fill:#000;fill-opacity:1;stroke:none;stroke-width:1px;stroke-linecap:butt;stroke-linejoin:miter;stroke-opacity:1;font-family:Arial" id="text3556" xml:space="preserve"><tspan id="tspan3558" x="284.839" y="810.954">full assoc</tspan></text><text x="352.477" y="770.707" style="font-size:15.03704453px;font-style:normal;font-weight:400;text-align:center;text-anchor:middle;fill:#000;fill-opacity:1;stroke:none;stroke-width:1px;stroke-linecap:butt;stroke-linejoin:miter;stroke-opacity:1;font-family:Arial" id="text3574" xml:space="preserve"><tspan id="tspan3576" x="352.477" y="770.707">4/2 MB</tspan></text><text x="352.15" y="790.83" style="font-size:15.03704453px;font-style:normal;font-weight:400;text-align:center;text-anchor:middle;fill:#000;fill-opacity:1;stroke:none;stroke-width:1px;stroke-linecap:butt;stroke-linejoin:miter;stroke-opacity:1;font-family:Arial" id="text3578" xml:space="preserve"><tspan id="tspan3580" x="352.15" y="790.83">8 entries</tspan></text><text x="352.165" y="810.954" style="font-size:15.03704453px;font-style:normal;font-weight:400;text-align:center;text-anchor:middle;fill:#000;fill-opacity:1;stroke:none;stroke-width:1px;stroke-linecap:butt;stroke-linejoin:miter;stroke-opacity:1;font-family:Arial" id="text3582" xml:space="preserve"><tspan id="tspan3584" x="352.165" y="810.954">full assoc</tspan></text><text x="461.831" y="747.97" style="font-size:15.03704453px;font-style:normal;font-weight:400;text-align:center;text-anchor:middle;fill:#000;fill-opacity:1;stroke:none;stroke-width:1px;stroke-linecap:butt;stroke-linejoin:miter;stroke-opacity:1;font-family:Arial" id="text3588" xml:space="preserve"><tspan id="tspan3590" x="461.831" y="747.97">L1 DTLB</tspan></text><text x="429.741" y="770.707" style="font-size:15.03704453px;font-style:normal;font-weight:400;text-align:center;text-anchor:middle;fill:#000;fill-opacity:1;stroke:none;stroke-width:1px;stroke-linecap:butt;stroke-linejoin:miter;stroke-opacity:1;font-family:Arial" id="text3592" xml:space="preserve"><tspan id="tspan3594" x="429.741" y="770.707">4 KB</tspan></text><text x="429.403" y="790.83" style="font-size:15.03704453px;font-style:normal;font-weight:400;text-align:center;text-anchor:middle;fill:#000;fill-opacity:1;stroke:none;stroke-width:1px;stroke-linecap:butt;stroke-linejoin:miter;stroke-opacity:1;font-family:Arial" id="text3596" xml:space="preserve"><tspan id="tspan3598" x="429.403" y="790.83">32 entries</tspan></text><text x="429.429" y="810.954" style="font-size:15.03704453px;font-style:normal;font-weight:400;text-align:center;text-anchor:middle;fill:#000;fill-opacity:1;stroke:none;stroke-width:1px;stroke-linecap:butt;stroke-linejoin:miter;stroke-opacity:1;font-family:Arial" id="text3600" xml:space="preserve"><tspan id="tspan3602" x="429.429" y="810.954">full assoc</tspan></text><text x="497.067" y="770.707" style="font-size:15.03704453px;font-style:normal;font-weight:400;text-align:center;text-anchor:middle;fill:#000;fill-opacity:1;stroke:none;stroke-width:1px;stroke-linecap:butt;stroke-linejoin:miter;stroke-opacity:1;font-family:Arial" id="text3604" xml:space="preserve"><tspan id="tspan3606" x="497.067" y="770.707">4/2 MB</tspan></text><text x="496.74" y="790.83" style="font-size:15.03704453px;font-style:normal;font-weight:400;text-align:center;text-anchor:middle;fill:#000;fill-opacity:1;stroke:none;stroke-width:1px;stroke-linecap:butt;stroke-linejoin:miter;stroke-opacity:1;font-family:Arial" id="text3608" xml:space="preserve"><tspan id="tspan3610" x="496.74" y="790.83">8 entries</tspan></text><text x="496.755" y="810.954" style="font-size:15.03704453px;font-style:normal;font-weight:400;text-align:center;text-anchor:middle;fill:#000;fill-opacity:1;stroke:none;stroke-width:1px;stroke-linecap:butt;stroke-linejoin:miter;stroke-opacity:1;font-family:Arial" id="text3612" xml:space="preserve"><tspan id="tspan3614" x="496.755" y="810.954">full assoc</tspan></text><path d="M 250.05828,752.75207 L 384.71035,752.75207" style="fill:none;fill-rule:evenodd;stroke:#000;stroke-width:2;stroke-linecap:butt;stroke-linejoin:miter;stroke-miterlimit:4;stroke-dasharray:none;stroke-opacity:1" id="path3161"/><path d="M 395.14464,752.75207 L 529.79671,752.75207" style="fill:none;fill-rule:evenodd;stroke:#000;stroke-width:2;stroke-linecap:butt;stroke-linejoin:miter;stroke-miterlimit:4;stroke-dasharray:none;stroke-opacity:1" id="path3174"/><path d="M 464.95503,752.50363 L 464.95503,817.09688" style="fill:none;fill-rule:evenodd;stroke:#000;stroke-width:2;stroke-linecap:butt;stroke-linejoin:miter;stroke-miterlimit:4;stroke-dasharray:none;stroke-opacity:1" id="path3176"/><g id="g3822"><path d="M 284.09375,695.125 L 284.09375,731.375 L 286.09375,731.375 L 286.09375,695.125 L 284.09375,695.125 z" style="fill:#000;fill-opacity:1;fill-rule:evenodd;stroke:none;stroke-width:2;stroke-linecap:butt;stroke-linejoin:miter;stroke-miterlimit:4;stroke-opacity:1" id="path3799"/><path d="M 280.24712,705.57733 L 285.06838,692.46627 L 289.88965,705.57733 C 287.04318,703.48273 283.14871,703.4948 280.24712,705.57733 z" style="font-size:12px;fill-rule:evenodd;stroke-width:.625;stroke-linejoin:round" id="path3828"/><path d="M 289.92808,720.9243 L 285.10682,734.03536 L 280.28555,720.9243 C 283.13202,723.0189 287.02649,723.00683 289.92808,720.9243 z" style="font-size:12px;fill-rule:evenodd;stroke-width:.625;stroke-linejoin:round" id="path3830"/></g></g></svg>