<svg xmlns="http://www.w3.org/2000/svg" xmlns:xlink="http://www.w3.org/1999/xlink" width="18cm" height="4cm" viewBox="14 13 350 71"><g id="Background"><g><ellipse style="fill:#fff;fill-opacity:1;stroke-opacity:1;stroke-width:2;stroke:#000" cx="57.933" cy="48.944" rx="42.067" ry="34.056"/><text font-size="12.8" style="fill:#000;fill-opacity:1;stroke:none;text-anchor:middle;font-family:sans-serif;font-style:normal;font-weight:400" x="57.933" y="44.844"><tspan x="57.933" y="44.844">Source</tspan> <tspan x="57.933" y="60.844">Code</tspan></text></g><g><rect style="fill:#fff;fill-opacity:1;stroke-opacity:1;stroke-width:2;stroke:#000" width="77.75" height="58" x="134.25" y="21" rx="0" ry="0"/><text font-size="12.8" style="fill:#000;fill-opacity:1;stroke:none;text-anchor:middle;font-family:sans-serif;font-style:normal;font-weight:400" x="173.125" y="45.9"><tspan x="173.125" y="45.9">Lexical</tspan> <tspan x="173.125" y="61.9">Analyzer</tspan></text></g><g><rect style="fill:#fff;fill-opacity:1;stroke-opacity:1;stroke-width:2;stroke:#000" width="77.75" height="54.3" x="285.8" y="21.7" rx="0" ry="0"/><text font-size="12.8" style="fill:#000;fill-opacity:1;stroke:none;text-anchor:middle;font-family:sans-serif;font-style:normal;font-weight:400" x="324.675" y="44.75"><tspan x="324.675" y="44.75">Syntax</tspan> <tspan x="324.675" y="60.75">Analyzer</tspan></text></g><g><line style="fill:none;stroke-opacity:1;stroke-width:2;stroke:#000" x1="100" x2="124.519" y1="48.944" y2="49.7"/><polygon style="fill:#000;fill-opacity:1;stroke-opacity:1;stroke-width:2;stroke:#000" fill-rule="evenodd" points="132.015 49.931 121.866 54.62 124.519 49.7 122.174 44.625"/></g><g><line style="fill:none;stroke-opacity:1;stroke-width:2;stroke:#000" x1="212" x2="276.064" y1="35.5" y2="35.305"/><polygon style="fill:#000;fill-opacity:1;stroke-opacity:1;stroke-width:2;stroke:#000" fill-rule="evenodd" points="283.564 35.282 273.579 40.312 276.064 35.305 273.549 30.312"/></g><text font-size="12.8" style="fill:#000;fill-opacity:1;stroke:none;text-anchor:start;font-family:sans-serif;font-style:normal;font-weight:400" x="230" y="30"><tspan x="230" y="30">Token</tspan></text><g><line style="fill:none;stroke-opacity:1;stroke-width:2;stroke-dasharray:4;stroke:#000" x1="285.8" x2="221.732" y1="62.425" y2="64.226"/><polygon style="fill:#000;fill-opacity:1;stroke-opacity:1;stroke-width:2;stroke:#000" fill-rule="evenodd" points="214.235 64.437 224.091 59.158 221.732 64.226 224.372 69.154"/></g><text font-size="12.8" style="fill:#000;fill-opacity:1;stroke:none;text-anchor:start;font-family:sans-serif;font-style:normal;font-weight:400" x="215" y="55"><tspan x="215" y="55">GetToken()</tspan></text></g></svg>