<svg xmlns="http://www.w3.org/2000/svg" xmlns:xlink="http://www.w3.org/1999/xlink" width="417.638" height="513.94" viewBox="2.55 0.703 13.6 14.3"><rect width="2.85" height="2.25" x="2.6" y="1.8" fill="#FFF" stroke="none" stroke-width="0"/><rect width="2.85" height="2.25" x="2.6" y="1.8" fill="none" stroke="#000" stroke-width=".1"/><text x="3.775" y="1.325" fill="#000" font-family="sans" font-size=".57" font-style="normal" font-weight="400" text-anchor="start">R0</text><ellipse cx="7.45" cy="2.45" fill="#FFF" stroke="none" rx="1.15" ry="1.15"/><ellipse cx="7.45" cy="2.45" fill="none" stroke="#000" stroke-width=".1" rx="1.15" ry="1.15"/><ellipse cx="7.45" cy="2.45" fill="none" stroke="#000" stroke-width=".1" rx="1.15" ry="1.15"/><text x="7.2" y="2.65" fill="#000" font-family="sans" font-size=".6" font-style="normal" font-weight="400" text-anchor="start">P0</text><line x1="4.115" x2="5.701" y1="2.575" y2="2.516" stroke="#000" stroke-width=".1"/><polygon fill="#000" stroke="none" stroke-width=".1" points="5.711 2.765 6.201 2.497 5.692 2.266"/><polygon fill="none" stroke="#000" stroke-width=".1" points="5.711 2.765 6.201 2.497 5.692 2.266"/><rect width="2.85" height="2.25" x="9.935" y="1.45" fill="#FFF" stroke="none" stroke-width="0"/><rect width="2.85" height="2.25" x="9.935" y="1.45" fill="none" stroke="#000" stroke-width=".1"/><text x="12.16" y="1.125" fill="#000" font-family="sans" font-size=".57" font-style="normal" font-weight="400" text-anchor="start">R1</text><ellipse cx="11.185" cy="6.4" fill="#FFF" stroke="none" rx="1.15" ry="1.15"/><ellipse cx="11.185" cy="6.4" fill="none" stroke="#000" stroke-width=".1" rx="1.15" ry="1.15"/><ellipse cx="11.185" cy="6.4" fill="none" stroke="#000" stroke-width=".1" rx="1.15" ry="1.15"/><text x="10.985" y="6.6" fill="#000" font-family="sans" font-size=".6" font-style="normal" font-weight="400" text-anchor="start">P1</text><rect width="2.005" height="2.25" x="9.79" y="8.55" fill="#FFF" stroke="none" stroke-width="0"/><rect width="2.005" height="2.25" x="9.79" y="8.55" fill="none" stroke="#000" stroke-width=".1"/><text x="10.792" y="9.675" fill="#000" font-family="sans" font-size=".57" font-style="normal" font-weight="400" text-anchor="start">R2</text><line x1="3.98" x2="9.538" y1="3.525" y2="6.164" stroke="#000" stroke-width=".1"/><polygon fill="#000" stroke="none" stroke-width=".1" points="9.431 6.39 9.99 6.379 9.645 5.938"/><polygon fill="none" stroke="#000" stroke-width=".1" points="9.431 6.39 9.99 6.379 9.645 5.938"/><rect width="2.85" height="2.25" x="3.825" y="11.95" fill="#FFF" stroke="none" stroke-width="0"/><rect width="2.85" height="2.25" x="3.825" y="11.95" fill="none" stroke="#000" stroke-width=".1"/><text x="5.65" y="11.675" fill="#000" font-family="sans" font-size=".57" font-style="normal" font-weight="400" text-anchor="start">R3</text><ellipse cx="3.99" cy="9.4" fill="#FFF" stroke="none" rx="1.15" ry="1.15"/><ellipse cx="3.99" cy="9.4" fill="none" stroke="#000" stroke-width=".1" rx="1.15" ry="1.15"/><ellipse cx="3.99" cy="9.4" fill="none" stroke="#000" stroke-width=".1" rx="1.15" ry="1.15"/><text x="3.79" y="9.6" fill="#000" font-family="sans" font-size=".6" font-style="normal" font-weight="400" text-anchor="start">P2</text><line x1="10.692" x2="5.74" y1="9.3" y2="9.374" stroke="#000" stroke-width=".1"/><polygon fill="#000" stroke="none" stroke-width=".1" points="5.736 9.124 5.24 9.381 5.743 9.624"/><polygon fill="none" stroke="#000" stroke-width=".1" points="5.736 9.124 5.24 9.381 5.743 9.624"/><ellipse cx="4.115" cy="2.562" fill="none" stroke="#000" stroke-width=".3" rx=".012" ry=".012"/><ellipse cx="4.115" cy="2.562" fill="none" stroke="#000" stroke-width=".3" rx=".012" ry=".012"/><ellipse cx="11.285" cy="2.562" fill="none" stroke="#000" stroke-width=".3" rx=".012" ry=".012"/><ellipse cx="11.285" cy="2.562" fill="none" stroke="#000" stroke-width=".3" rx=".012" ry=".012"/><ellipse cx="3.98" cy="3.512" fill="none" stroke="#000" stroke-width=".3" rx=".012" ry=".012"/><ellipse cx="3.98" cy="3.512" fill="none" stroke="#000" stroke-width=".3" rx=".012" ry=".012"/><line x1="11.185" x2="11.109" y1="7.55" y2="7.959" stroke="#000" stroke-width=".1"/><polygon fill="#000" stroke="none" stroke-width=".1" points="10.864 7.914 11.019 8.451 11.355 8.004"/><polygon fill="none" stroke="#000" stroke-width=".1" points="10.864 7.914 11.019 8.451 11.355 8.004"/><line x1="3.99" x2="4.014" y1="8.25" y2="4.645" stroke="#000" stroke-width=".1"/><polygon fill="#000" stroke="none" stroke-width=".1" points="4.264 4.647 4.017 4.145 3.764 4.643"/><polygon fill="none" stroke="#000" stroke-width=".1" points="4.264 4.647 4.017 4.145 3.764 4.643"/><ellipse cx="11.117" cy="13.1" fill="#FFF" stroke="none" rx="1.15" ry="1.15"/><ellipse cx="11.117" cy="13.1" fill="none" stroke="#000" stroke-width=".1" rx="1.15" ry="1.15"/><ellipse cx="11.117" cy="13.1" fill="none" stroke="#000" stroke-width=".1" rx="1.15" ry="1.15"/><text x="11.017" y="13.3" fill="#000" font-family="sans" font-size=".6" font-style="normal" font-weight="400" text-anchor="start">P3</text><line x1="8.6" x2="9.387" y1="2.45" y2="2.524" stroke="#000" stroke-width=".1"/><polygon fill="#000" stroke="none" stroke-width=".1" points="9.364 2.773 9.885 2.57 9.411 2.275"/><polygon fill="none" stroke="#000" stroke-width=".1" points="9.364 2.773 9.885 2.57 9.411 2.275"/><line x1="11.297" x2="11.236" y1="2.562" y2="4.651" stroke="#000" stroke-width=".1"/><polygon fill="#000" stroke="none" stroke-width=".1" points="10.986 4.643 11.222 5.15 11.486 4.658"/><polygon fill="none" stroke="#000" stroke-width=".1" points="10.986 4.643 11.222 5.15 11.486 4.658"/><ellipse cx="10.692" cy="9.312" fill="none" stroke="#000" stroke-width=".3" rx=".012" ry=".012"/><ellipse cx="10.692" cy="9.312" fill="none" stroke="#000" stroke-width=".3" rx=".012" ry=".012"/><ellipse cx="10.762" cy="10.412" fill="none" stroke="#000" stroke-width=".3" rx=".012" ry=".012"/><ellipse cx="10.762" cy="10.412" fill="none" stroke="#000" stroke-width=".3" rx=".012" ry=".012"/><line x1="10.712" x2="10.881" y1="10.125" y2="11.366" stroke="#000" stroke-width=".1"/><polygon fill="#000" stroke="none" stroke-width=".1" points="10.634 11.4 10.949 11.861 11.129 11.332"/><polygon fill="none" stroke="#000" stroke-width=".1" points="10.634 11.4 10.949 11.861 11.129 11.332"/><ellipse cx="5.247" cy="12.412" fill="none" stroke="#000" stroke-width=".3" rx=".012" ry=".012"/><ellipse cx="5.247" cy="12.412" fill="none" stroke="#000" stroke-width=".3" rx=".012" ry=".012"/><ellipse cx="5.232" cy="13.762" fill="none" stroke="#000" stroke-width=".3" rx=".012" ry=".012"/><ellipse cx="5.232" cy="13.762" fill="none" stroke="#000" stroke-width=".3" rx=".012" ry=".012"/><path fill="none" stroke="#000" stroke-width=".1" d="M 11.920,12.271 A 7.152,7.152 0 0,0 12.630,4.217"/><polygon fill="#000" stroke="none" stroke-width=".1" points="12.857 4.068 12.371 3.791 12.441 4.346"/><polygon fill="none" stroke="#000" stroke-width=".1" points="12.857 4.068 12.371 3.791 12.441 4.346"/><line x1="5.232" x2="9.378" y1="13.75" y2="13.292" stroke="#000" stroke-width=".1"/><polygon fill="#000" stroke="none" stroke-width=".1" points="9.405 13.541 9.875 13.237 9.35 13.044"/><polygon fill="none" stroke="#000" stroke-width=".1" points="9.405 13.541 9.875 13.237 9.35 13.044"/></svg>