<svg xmlns="http://www.w3.org/2000/svg" xmlns:xlink="http://www.w3.org/1999/xlink" width="395.717" height="513.94" viewBox="2.55 0.703 13.02 14.3"><rect width="2.85" height="2.25" x="2.6" y="1.8" fill="#FFF" stroke="none" stroke-width="0"/><rect width="2.85" height="2.25" x="2.6" y="1.8" fill="none" stroke="#000" stroke-width=".1"/><text x="3.775" y="1.325" fill="#000" font-family="sans" font-size=".57" font-style="normal" font-weight="400" text-anchor="start">R0</text><ellipse cx="7.45" cy="2.45" fill="#FFF" stroke="none" rx="1.15" ry="1.15"/><ellipse cx="7.45" cy="2.45" fill="none" stroke="#000" stroke-width=".1" rx="1.15" ry="1.15"/><ellipse cx="7.45" cy="2.45" fill="none" stroke="#000" stroke-width=".1" rx="1.15" ry="1.15"/><text x="7.2" y="2.65" fill="#000" font-family="sans" font-size=".6" font-style="normal" font-weight="400" text-anchor="start">P0</text><line x1="4.115" x2="5.701" y1="2.575" y2="2.516" stroke="#000" stroke-width=".1"/><polygon fill="#000" stroke="none" stroke-width=".1" points="5.711 2.765 6.201 2.497 5.692 2.266"/><polygon fill="none" stroke="#000" stroke-width=".1" points="5.711 2.765 6.201 2.497 5.692 2.266"/><rect width="2.85" height="2.25" x="9.935" y="1.45" fill="#FFF" stroke="none" stroke-width="0"/><rect width="2.85" height="2.25" x="9.935" y="1.45" fill="none" stroke="#000" stroke-width=".1"/><text x="12.16" y="1.125" fill="#000" font-family="sans" font-size=".57" font-style="normal" font-weight="400" text-anchor="start">R1</text><ellipse cx="11.185" cy="6.4" fill="#FFF" stroke="none" rx="1.15" ry="1.15"/><ellipse cx="11.185" cy="6.4" fill="none" stroke="#000" stroke-width=".1" rx="1.15" ry="1.15"/><ellipse cx="11.185" cy="6.4" fill="none" stroke="#000" stroke-width=".1" rx="1.15" ry="1.15"/><text x="10.985" y="6.6" fill="#000" font-family="sans" font-size=".6" font-style="normal" font-weight="400" text-anchor="start">P1</text><rect width="2.85" height="2.25" x="9.74" y="8.9" fill="#FFF" stroke="none" stroke-width="0"/><rect width="2.85" height="2.25" x="9.74" y="8.9" fill="none" stroke="#000" stroke-width=".1"/><text x="12.415" y="8.425" fill="#000" font-family="sans" font-size=".57" font-style="normal" font-weight="400" text-anchor="start">R2</text><line x1="3.98" x2="9.538" y1="3.525" y2="6.164" stroke="#000" stroke-width=".1"/><polygon fill="#000" stroke="none" stroke-width=".1" points="9.431 6.39 9.99 6.379 9.645 5.938"/><polygon fill="none" stroke="#000" stroke-width=".1" points="9.431 6.39 9.99 6.379 9.645 5.938"/><rect width="2.85" height="2.25" x="3.825" y="11.95" fill="#FFF" stroke="none" stroke-width="0"/><rect width="2.85" height="2.25" x="3.825" y="11.95" fill="none" stroke="#000" stroke-width=".1"/><text x="5.65" y="11.675" fill="#000" font-family="sans" font-size=".57" font-style="normal" font-weight="400" text-anchor="start">R3</text><ellipse cx="3.99" cy="9.65" fill="#FFF" stroke="none" rx="1.15" ry="1.15"/><ellipse cx="3.99" cy="9.65" fill="none" stroke="#000" stroke-width=".1" rx="1.15" ry="1.15"/><ellipse cx="3.99" cy="9.65" fill="none" stroke="#000" stroke-width=".1" rx="1.15" ry="1.15"/><text x="3.84" y="9.85" fill="#000" font-family="sans" font-size=".6" font-style="normal" font-weight="400" text-anchor="start">P2</text><line x1="11.192" x2="5.74" y1="9.6" y2="9.638" stroke="#000" stroke-width=".1"/><polygon fill="#000" stroke="none" stroke-width=".1" points="5.738 9.388 5.24 9.641 5.742 9.888"/><polygon fill="none" stroke="#000" stroke-width=".1" points="5.738 9.388 5.24 9.641 5.742 9.888"/><ellipse cx="4.115" cy="2.562" fill="none" stroke="#000" stroke-width=".3" rx=".012" ry=".012"/><ellipse cx="4.115" cy="2.562" fill="none" stroke="#000" stroke-width=".3" rx=".012" ry=".012"/><ellipse cx="11.285" cy="2.562" fill="none" stroke="#000" stroke-width=".3" rx=".012" ry=".012"/><ellipse cx="11.285" cy="2.562" fill="none" stroke="#000" stroke-width=".3" rx=".012" ry=".012"/><ellipse cx="3.98" cy="3.512" fill="none" stroke="#000" stroke-width=".3" rx=".012" ry=".012"/><ellipse cx="3.98" cy="3.512" fill="none" stroke="#000" stroke-width=".3" rx=".012" ry=".012"/><line x1="11.185" x2="11.179" y1="7.55" y2="8.3" stroke="#000" stroke-width=".1"/><polygon fill="#000" stroke="none" stroke-width=".1" points="10.929 8.298 11.175 8.8 11.429 8.302"/><polygon fill="none" stroke="#000" stroke-width=".1" points="10.929 8.298 11.175 8.8 11.429 8.302"/><line x1="3.99" x2="4.014" y1="8.5" y2="4.629" stroke="#000" stroke-width=".1"/><polygon fill="#000" stroke="none" stroke-width=".1" points="4.264 4.631 4.017 4.129 3.764 4.628"/><polygon fill="none" stroke="#000" stroke-width=".1" points="4.264 4.631 4.017 4.129 3.764 4.628"/><ellipse cx="11.117" cy="13.1" fill="#FFF" stroke="none" rx="1.15" ry="1.15"/><ellipse cx="11.117" cy="13.1" fill="none" stroke="#000" stroke-width=".1" rx="1.15" ry="1.15"/><ellipse cx="11.117" cy="13.1" fill="none" stroke="#000" stroke-width=".1" rx="1.15" ry="1.15"/><text x="11.017" y="13.3" fill="#000" font-family="sans" font-size=".6" font-style="normal" font-weight="400" text-anchor="start">P3</text><line x1="8.6" x2="9.387" y1="2.45" y2="2.524" stroke="#000" stroke-width=".1"/><polygon fill="#000" stroke="none" stroke-width=".1" points="9.364 2.773 9.885 2.57 9.411 2.275"/><polygon fill="none" stroke="#000" stroke-width=".1" points="9.364 2.773 9.885 2.57 9.411 2.275"/><line x1="11.297" x2="11.236" y1="2.562" y2="4.651" stroke="#000" stroke-width=".1"/><polygon fill="#000" stroke="none" stroke-width=".1" points="10.986 4.643 11.222 5.15 11.486 4.658"/><polygon fill="none" stroke="#000" stroke-width=".1" points="10.986 4.643 11.222 5.15 11.486 4.658"/><ellipse cx="11.192" cy="9.612" fill="none" stroke="#000" stroke-width=".3" rx=".012" ry=".012"/><ellipse cx="11.192" cy="9.612" fill="none" stroke="#000" stroke-width=".3" rx=".012" ry=".012"/><ellipse cx="11.112" cy="10.412" fill="none" stroke="#000" stroke-width=".3" rx=".012" ry=".012"/><ellipse cx="11.112" cy="10.412" fill="none" stroke="#000" stroke-width=".3" rx=".012" ry=".012"/><line x1="11.125" x2="11.122" y1="10.412" y2="11.35" stroke="#000" stroke-width=".1"/><polygon fill="#000" stroke="none" stroke-width=".1" points="10.872 11.349 11.121 11.85 11.372 11.351"/><polygon fill="none" stroke="#000" stroke-width=".1" points="10.872 11.349 11.121 11.85 11.372 11.351"/><ellipse cx="5.247" cy="12.412" fill="none" stroke="#000" stroke-width=".3" rx=".012" ry=".012"/><ellipse cx="5.247" cy="12.412" fill="none" stroke="#000" stroke-width=".3" rx=".012" ry=".012"/><ellipse cx="5.232" cy="13.762" fill="none" stroke="#000" stroke-width=".3" rx=".012" ry=".012"/><ellipse cx="5.232" cy="13.762" fill="none" stroke="#000" stroke-width=".3" rx=".012" ry=".012"/><line x1="5.232" x2="9.378" y1="13.75" y2="13.292" stroke="#000" stroke-width=".1"/><polygon fill="#000" stroke="none" stroke-width=".1" points="9.405 13.541 9.875 13.237 9.35 13.044"/><polygon fill="none" stroke="#000" stroke-width=".1" points="9.405 13.541 9.875 13.237 9.35 13.044"/></svg>