<svg xmlns="http://www.w3.org/2000/svg" xmlns:xlink="http://www.w3.org/1999/xlink" width="388.724" height="9.8cm" viewBox="2.55 1.4 12.835 11.2"><rect width="2.85" height="2.25" x="2.6" y="1.8" fill="#FFF" stroke="none" stroke-width="0"/><rect width="2.85" height="2.25" x="2.6" y="1.8" fill="none" stroke="#000" stroke-width=".1"/><text x="3.775" y="2.975" fill="#000" font-family="sans" font-size=".57" font-style="normal" font-weight="400" text-anchor="start">R0</text><ellipse cx="7.65" cy="6.25" fill="#FFF" stroke="none" rx="1.15" ry="1.15"/><ellipse cx="7.65" cy="6.25" fill="none" stroke="#000" stroke-width=".1" rx="1.15" ry="1.15"/><ellipse cx="7.65" cy="6.25" fill="none" stroke="#000" stroke-width=".1" rx="1.15" ry="1.15"/><text x="7.55" y="6.4" fill="#000" font-family="sans" font-size=".6" font-style="normal" font-weight="400" text-anchor="start">P0</text><line x1="5.303" x2="6.363" y1="4.097" y2="5.07" stroke="#000" stroke-width=".1"/><polygon fill="#000" stroke="none" stroke-width=".1" points="6.194 5.254 6.732 5.408 6.532 4.885"/><polygon fill="none" stroke="#000" stroke-width=".1" points="6.194 5.254 6.732 5.408 6.532 4.885"/><rect width="2.85" height="2.25" x="9.935" y="1.45" fill="#FFF" stroke="none" stroke-width="0"/><rect width="2.85" height="2.25" x="9.935" y="1.45" fill="none" stroke="#000" stroke-width=".1"/><text x="11.21" y="2.625" fill="#000" font-family="sans" font-size=".57" font-style="normal" font-weight="400" text-anchor="start">R1</text><ellipse cx="11.185" cy="6.4" fill="#FFF" stroke="none" rx="1.15" ry="1.15"/><ellipse cx="11.185" cy="6.4" fill="none" stroke="#000" stroke-width=".1" rx="1.15" ry="1.15"/><ellipse cx="11.185" cy="6.4" fill="none" stroke="#000" stroke-width=".1" rx="1.15" ry="1.15"/><text x="10.985" y="6.6" fill="#000" font-family="sans" font-size=".6" font-style="normal" font-weight="400" text-anchor="start">P1</text><rect width="2.85" height="2.25" x="9.74" y="8.9" fill="#FFF" stroke="none" stroke-width="0"/><rect width="2.85" height="2.25" x="9.74" y="8.9" fill="none" stroke="#000" stroke-width=".1"/><text x="11.015" y="10.025" fill="#000" font-family="sans" font-size=".57" font-style="normal" font-weight="400" text-anchor="start">R2</text><ellipse cx="5.89" cy="9.9" fill="#FFF" stroke="none" rx="1.15" ry="1.15"/><ellipse cx="5.89" cy="9.9" fill="none" stroke="#000" stroke-width=".1" rx="1.15" ry="1.15"/><ellipse cx="5.89" cy="9.9" fill="none" stroke="#000" stroke-width=".1" rx="1.15" ry="1.15"/><text x="5.79" y="9.95" fill="#000" font-family="sans" font-size=".6" font-style="normal" font-weight="400" text-anchor="start">P2</text><line x1="9.69" x2="7.638" y1="9.99" y2="9.941" stroke="#000" stroke-width=".1"/><polygon fill="#000" stroke="none" stroke-width=".1" points="7.643 9.691 7.138 9.93 7.632 10.191"/><polygon fill="none" stroke="#000" stroke-width=".1" points="7.643 9.691 7.138 9.93 7.632 10.191"/><line x1="11.185" x2="11.179" y1="7.55" y2="8.3" stroke="#000" stroke-width=".1"/><polygon fill="#000" stroke="none" stroke-width=".1" points="10.929 8.298 11.175 8.8 11.429 8.302"/><polygon fill="none" stroke="#000" stroke-width=".1" points="10.929 8.298 11.175 8.8 11.429 8.302"/><line x1="8.279" x2="9.645" y1="5.238" y2="3.042" stroke="#000" stroke-width=".1"/><polygon fill="#000" stroke="none" stroke-width=".1" points="9.857 3.174 9.909 2.617 9.432 2.91"/><polygon fill="none" stroke="#000" stroke-width=".1" points="9.857 3.174 9.909 2.617 9.432 2.91"/><line x1="11.306" x2="11.265" y1="3.75" y2="4.653" stroke="#000" stroke-width=".1"/><polygon fill="#000" stroke="none" stroke-width=".1" points="11.015 4.642 11.242 5.153 11.515 4.665"/><polygon fill="none" stroke="#000" stroke-width=".1" points="11.015 4.642 11.242 5.153 11.515 4.665"/></svg>