<svg xmlns="http://www.w3.org/2000/svg" xmlns:xlink="http://www.w3.org/1999/xlink" width="10cm" height="9cm" viewBox="4 16 185 172"><g id="Background"><g><ellipse style="fill:#fff;fill-opacity:1;stroke-opacity:1;stroke-width:2;stroke:#000" cx="31.933" cy="100.966" rx="26.379" ry="19.766"/><text font-size="12.8" style="fill:#000;fill-opacity:1;stroke:none;text-anchor:middle;font-family:sans-serif;font-style:normal;font-weight:400" x="31.933" y="104.866"><tspan x="31.933" y="104.866">P0</tspan></text></g><g><ellipse style="fill:#fff;fill-opacity:1;stroke-opacity:1;stroke-width:2;stroke:#000" cx="163.933" cy="100.578" rx="24.432" ry="21.578"/><text font-size="12.8" style="fill:#000;fill-opacity:1;stroke:none;text-anchor:middle;font-family:sans-serif;font-style:normal;font-weight:400" x="163.933" y="104.478"><tspan x="163.933" y="104.478">P1</tspan></text></g><g><rect style="fill:#fff;fill-opacity:1;stroke-opacity:1;stroke-width:2;stroke:#000" width="55" height="45" x="69" y="142" rx="0" ry="0"/><text font-size="12.8" style="fill:#000;fill-opacity:1;stroke:none;text-anchor:middle;font-family:sans-serif;font-style:normal;font-weight:400" x="96.5" y="168.4"><tspan x="96.5" y="168.4">R1</tspan></text></g><g><rect style="fill:#fff;fill-opacity:1;stroke-opacity:1;stroke-width:2;stroke:#000" width="53" height="39" x="70" y="18" rx="0" ry="0"/><text font-size="12.8" style="fill:#000;fill-opacity:1;stroke:none;text-anchor:middle;font-family:sans-serif;font-style:normal;font-weight:400" x="96.5" y="41.4"><tspan x="96.5" y="41.4">R0</tspan></text></g><g><line style="fill:none;stroke-opacity:1;stroke-width:2;stroke:#000" x1="31.933" x2="60.067" y1="120.732" y2="139.803"/><polygon style="fill:#000;fill-opacity:1;stroke-opacity:1;stroke-width:2;stroke:#000" fill-rule="evenodd" points="66.275 144.011 55.192 142.539 60.067 139.803 60.803 134.262"/></g><g><line style="fill:none;stroke-opacity:1;stroke-width:2;stroke:#000" x1="121" x2="138.134" y1="137" y2="122.464"/><polygon style="fill:#000;fill-opacity:1;stroke-opacity:1;stroke-width:2;stroke:#000" fill-rule="evenodd" points="143.853 117.612 139.462 127.894 138.134 122.464 132.993 120.269"/></g><g><line style="fill:none;stroke-opacity:1;stroke-width:2;stroke:#000" x1="154.583" x2="131.797" y1="80.642" y2="63.718"/><polygon style="fill:#000;fill-opacity:1;stroke-opacity:1;stroke-width:2;stroke:#000" fill-rule="evenodd" points="125.777 59.246 136.786 61.195 131.797 63.718 130.823 69.223"/></g><g><line style="fill:none;stroke-opacity:1;stroke-width:2;stroke:#000" x1="70" x2="53.25" y1="57" y2="76.346"/><polygon style="fill:#000;fill-opacity:1;stroke-opacity:1;stroke-width:2;stroke:#000" fill-rule="evenodd" points="48.341 82.016 51.106 71.183 53.25 76.346 58.666 77.728"/></g></g></svg>