<svg xmlns="http://www.w3.org/2000/svg" xmlns:xlink="http://www.w3.org/1999/xlink" width="388.724" height="9.8cm" viewBox="2.55 1.4 12.835 11.2"><rect width="2.85" height="2.25" x="2.6" y="1.8" fill="#FFF" stroke="none" stroke-width="0"/><rect width="2.85" height="2.25" x="2.6" y="1.8" fill="none" stroke="#000" stroke-width=".1"/><text x="3.675" y="3.175" fill="#000" font-family="sans" font-size=".57" font-style="normal" font-weight="400" text-anchor="start">R0</text><ellipse cx="7.65" cy="6.25" fill="#FFF" stroke="none" rx="1.15" ry="1.15"/><ellipse cx="7.65" cy="6.25" fill="none" stroke="#000" stroke-width=".1" rx="1.15" ry="1.15"/><ellipse cx="7.65" cy="6.25" fill="none" stroke="#000" stroke-width=".1" rx="1.15" ry="1.15"/><text x="7.6" y="6.4" fill="#000" font-family="sans" font-size=".6" font-style="normal" font-weight="400" text-anchor="start">P0</text><line x1="5.303" x2="6.363" y1="4.097" y2="5.07" stroke="#000" stroke-width=".1"/><polygon fill="#000" stroke="none" stroke-width=".1" points="6.194 5.254 6.732 5.408 6.532 4.885"/><polygon fill="none" stroke="#000" stroke-width=".1" points="6.194 5.254 6.732 5.408 6.532 4.885"/><rect width="2.85" height="2.25" x="9.935" y="1.45" fill="#FFF" stroke="none" stroke-width="0"/><rect width="2.85" height="2.25" x="9.935" y="1.45" fill="none" stroke="#000" stroke-width=".1"/><text x="11.31" y="2.575" fill="#000" font-family="sans" font-size=".57" font-style="normal" font-weight="400" text-anchor="start">R1</text><ellipse cx="11.185" cy="6.4" fill="#FFF" stroke="none" rx="1.15" ry="1.15"/><ellipse cx="11.185" cy="6.4" fill="none" stroke="#000" stroke-width=".1" rx="1.15" ry="1.15"/><ellipse cx="11.185" cy="6.4" fill="none" stroke="#000" stroke-width=".1" rx="1.15" ry="1.15"/><text x="10.985" y="6.6" fill="#000" font-family="sans" font-size=".6" font-style="normal" font-weight="400" text-anchor="start">P1</text><rect width="2.85" height="2.25" x="9.74" y="8.9" fill="#FFF" stroke="none" stroke-width="0"/><rect width="2.85" height="2.25" x="9.74" y="8.9" fill="none" stroke="#000" stroke-width=".1"/><text x="11.115" y="10.125" fill="#000" font-family="sans" font-size=".57" font-style="normal" font-weight="400" text-anchor="start">R2</text><ellipse cx="5.89" cy="9.9" fill="#FFF" stroke="none" rx="1.15" ry="1.15"/><ellipse cx="5.89" cy="9.9" fill="none" stroke="#000" stroke-width=".1" rx="1.15" ry="1.15"/><ellipse cx="5.89" cy="9.9" fill="none" stroke="#000" stroke-width=".1" rx="1.15" ry="1.15"/><text x="5.74" y="10.05" fill="#000" font-family="sans" font-size=".6" font-style="normal" font-weight="400" text-anchor="start">P2</text><line x1="8.279" x2="9.645" y1="5.238" y2="3.042" stroke="#000" stroke-width=".1"/><polygon fill="#000" stroke="none" stroke-width=".1" points="9.857 3.174 9.909 2.617 9.432 2.91"/><polygon fill="none" stroke="#000" stroke-width=".1" points="9.857 3.174 9.909 2.617 9.432 2.91"/><line x1="11.306" x2="11.265" y1="3.75" y2="4.653" stroke="#000" stroke-width=".1"/><polygon fill="#000" stroke="none" stroke-width=".1" points="11.015 4.642 11.242 5.153 11.515 4.665"/><polygon fill="none" stroke="#000" stroke-width=".1" points="11.015 4.642 11.242 5.153 11.515 4.665"/><line x1="9.141" x2="7.088" y1="9.977" y2="9.928" stroke="#000" stroke-dasharray=".1 .1" stroke-width=".1"/><polygon fill="#000" stroke="none" stroke-width=".1" points="9.135 10.227 9.64 9.989 9.146 9.727"/><polygon fill="none" stroke="#000" stroke-width=".1" points="9.135 10.227 9.64 9.989 9.146 9.727"/><line x1="5.58" x2="4.481" y1="8.741" y2="4.632" stroke="#000" stroke-dasharray=".1 .1" stroke-width=".1"/><polygon fill="#000" stroke="none" stroke-width=".1" points="4.723 4.567 4.352 4.149 4.24 4.696"/><polygon fill="none" stroke="#000" stroke-width=".1" points="4.723 4.567 4.352 4.149 4.24 4.696"/><line x1="11.178" x2="11.174" y1="7.598" y2="8.307" stroke="#000" stroke-dasharray=".1 .1" stroke-width=".1"/><polygon fill="#000" stroke="none" stroke-width=".1" points="10.924 8.305 11.172 8.807 11.424 8.308"/><polygon fill="none" stroke="#000" stroke-width=".1" points="10.924 8.305 11.172 8.807 11.424 8.308"/></svg>