<svg xmlns="http://www.w3.org/2000/svg" xmlns:xlink="http://www.w3.org/1999/xlink" width="8.215cm" height="5.5cm" viewBox="2.685 1.15 10.9 6.65"><rect width="2.85" height="2.25" x="2.8" y="1.2" fill="#FFF" stroke="none" stroke-width="0"/><rect width="2.85" height="2.25" x="2.8" y="1.2" fill="none" stroke="#000" stroke-width=".1"/><text x="3.925" y="2.475" fill="#000" font-family="sans" font-size=".57" font-style="normal" font-weight="400" text-anchor="start">R0</text><ellipse cx="9.7" cy="2.35" fill="#FFF" stroke="none" rx="1.15" ry="1.15"/><ellipse cx="9.7" cy="2.35" fill="none" stroke="#000" stroke-width=".1" rx="1.15" ry="1.15"/><ellipse cx="9.7" cy="2.35" fill="none" stroke="#000" stroke-width=".1" rx="1.15" ry="1.15"/><text x="9.4" y="2.6" fill="#000" font-family="sans" font-size=".6" font-style="normal" font-weight="400" text-anchor="start">P0</text><line x1="5.65" x2="7.951" y1="2.325" y2="2.339" stroke="#000" stroke-width=".1"/><polygon fill="#000" stroke="none" stroke-width=".1" points="7.949 2.589 8.451 2.342 7.952 2.089"/><polygon fill="none" stroke="#000" stroke-width=".1" points="7.949 2.589 8.451 2.342 7.952 2.089"/><rect width="2.85" height="2.25" x="2.735" y="4.35" fill="#FFF" stroke="none" stroke-width="0"/><rect width="2.85" height="2.25" x="2.735" y="4.35" fill="none" stroke="#000" stroke-width=".1"/><text x="3.81" y="5.725" fill="#000" font-family="sans" font-size=".57" font-style="normal" font-weight="400" text-anchor="start">R1</text><line x1="5.585" x2="9.204" y1="5.475" y2="3.738" stroke="#000" stroke-width=".1"/><polygon fill="#000" stroke="none" stroke-width=".1" points="9.312 3.963 9.655 3.522 9.096 3.513"/><polygon fill="none" stroke="#000" stroke-width=".1" points="9.312 3.963 9.655 3.522 9.096 3.513"/></svg>