<svg xmlns="http://www.w3.org/2000/svg" xmlns:xlink="http://www.w3.org/1999/xlink" width="276.85" height="396.85" viewBox="2.625 1.15 9.95 11.65"><rect width="2.85" height="2.25" x="2.8" y="1.2" fill="#FFF" stroke="none" stroke-width="0"/><rect width="2.85" height="2.25" x="2.8" y="1.2" fill="none" stroke="#000" stroke-width=".1"/><text x="3.925" y="2.475" fill="#000" font-family="sans" font-size=".57" font-style="normal" font-weight="400" text-anchor="start">R0</text><ellipse cx="8.75" cy="2.35" fill="#FFF" stroke="none" rx="1.15" ry="1.15"/><ellipse cx="8.75" cy="2.35" fill="none" stroke="#000" stroke-width=".1" rx="1.15" ry="1.15"/><ellipse cx="8.75" cy="2.35" fill="none" stroke="#000" stroke-width=".1" rx="1.15" ry="1.15"/><text x="8.6" y="2.5" fill="#000" font-family="sans" font-size=".6" font-style="normal" font-weight="400" text-anchor="start">P0</text><line x1="5.65" x2="7" y1="2.325" y2="2.336" stroke="#000" stroke-width=".1"/><polygon fill="#000" stroke="none" stroke-width=".1" points="6.998 2.586 7.5 2.34 7.002 2.086"/><polygon fill="none" stroke="#000" stroke-width=".1" points="6.998 2.586 7.5 2.34 7.002 2.086"/><rect width="2.85" height="2.25" x="2.735" y="3.85" fill="#FFF" stroke="none" stroke-width="0"/><rect width="2.85" height="2.25" x="2.735" y="3.85" fill="none" stroke="#000" stroke-width=".1"/><text x="3.96" y="5.075" fill="#000" font-family="sans" font-size=".57" font-style="normal" font-weight="400" text-anchor="start">R1</text><line x1="5.585" x2="7.265" y1="4.975" y2="2.786" stroke="#000" stroke-width=".1"/><polygon fill="#000" stroke="none" stroke-width=".1" points="7.463 2.939 7.57 2.39 7.067 2.634"/><polygon fill="none" stroke="#000" stroke-width=".1" points="7.463 2.939 7.57 2.39 7.067 2.634"/><ellipse cx="8.535" cy="6.45" fill="#FFF" stroke="none" rx="1.15" ry="1.15"/><ellipse cx="8.535" cy="6.45" fill="none" stroke="#000" stroke-width=".1" rx="1.15" ry="1.15"/><ellipse cx="8.535" cy="6.45" fill="none" stroke="#000" stroke-width=".1" rx="1.15" ry="1.15"/><text x="8.385" y="6.6" fill="#000" font-family="sans" font-size=".6" font-style="normal" font-weight="400" text-anchor="start">P1</text><line x1="7.385" x2="6.01" y1="6.45" y2="5.324" stroke="#000" stroke-width=".1"/><polygon fill="#000" stroke="none" stroke-width=".1" points="6.169 5.13 5.624 5.007 5.852 5.517"/><polygon fill="none" stroke="#000" stroke-width=".1" points="6.169 5.13 5.624 5.007 5.852 5.517"/><rect width="2.85" height="2.25" x="2.69" y="6.6" fill="#FFF" stroke="none" stroke-width="0"/><rect width="2.85" height="2.25" x="2.69" y="6.6" fill="none" stroke="#000" stroke-width=".1"/><text x="3.865" y="7.775" fill="#000" font-family="sans" font-size=".57" font-style="normal" font-weight="400" text-anchor="start">R2</text><line x1="5.655" x2="6.927" y1="7.6" y2="6.754" stroke="#000" stroke-width=".1"/><polygon fill="#000" stroke="none" stroke-width=".1" points="7.065 6.963 7.343 6.478 6.789 6.546"/><polygon fill="none" stroke="#000" stroke-width=".1" points="7.065 6.963 7.343 6.478 6.789 6.546"/><rect width="2.85" height="2.25" x="2.675" y="9.35" fill="#FFF" stroke="none" stroke-width="0"/><rect width="2.85" height="2.25" x="2.675" y="9.35" fill="none" stroke="#000" stroke-width=".1"/><text x="3.85" y="10.725" fill="#000" font-family="sans" font-size=".57" font-style="normal" font-weight="400" text-anchor="start">R3</text><ellipse cx="8.39" cy="10.35" fill="#FFF" stroke="none" rx="1.15" ry="1.15"/><ellipse cx="8.39" cy="10.35" fill="none" stroke="#000" stroke-width=".1" rx="1.15" ry="1.15"/><ellipse cx="8.39" cy="10.35" fill="none" stroke="#000" stroke-width=".1" rx="1.15" ry="1.15"/><text x="8.19" y="10.55" fill="#000" font-family="sans" font-size=".6" font-style="normal" font-weight="400" text-anchor="start">P2</text><line x1="5.525" x2="6.691" y1="10.475" y2="10.39" stroke="#000" stroke-width=".1"/><polygon fill="#000" stroke="none" stroke-width=".1" points="6.71 10.639 7.19 10.354 6.673 10.141"/><polygon fill="none" stroke="#000" stroke-width=".1" points="6.71 10.639 7.19 10.354 6.673 10.141"/></svg>