<svg xmlns="http://www.w3.org/2000/svg" xmlns:xlink="http://www.w3.org/1999/xlink" width="7.4cm" height="500.712" viewBox="2.55 0.402 9.95 13.65"><rect width="2.85" height="2.25" x="2.6" y="1.05" fill="#FFF" stroke="none" stroke-width="0"/><rect width="2.85" height="2.25" x="2.6" y="1.05" fill="none" stroke="#000" stroke-width=".1"/><text x="3.775" y=".825" fill="#000" font-family="sans" font-size=".57" font-style="normal" font-weight="400" text-anchor="start">R0</text><ellipse cx="8.75" cy="2.25" fill="#FFF" stroke="none" rx="1.15" ry="1.15"/><ellipse cx="8.75" cy="2.25" fill="none" stroke="#000" stroke-width=".1" rx="1.15" ry="1.15"/><ellipse cx="8.75" cy="2.25" fill="none" stroke="#000" stroke-width=".1" rx="1.15" ry="1.15"/><text x="8.55" y="2.45" fill="#000" font-family="sans" font-size=".6" font-style="normal" font-weight="400" text-anchor="start">P0</text><line x1="4.115" x2="7" y1="2.175" y2="2.222" stroke="#000" stroke-width=".1"/><polygon fill="#000" stroke="none" stroke-width=".1" points="6.996 2.472 7.5 2.23 7.004 1.972"/><polygon fill="none" stroke="#000" stroke-width=".1" points="6.996 2.472 7.5 2.23 7.004 1.972"/><rect width="2.85" height="2.25" x="2.735" y="4.55" fill="#FFF" stroke="none" stroke-width="0"/><rect width="2.85" height="2.25" x="2.735" y="4.55" fill="none" stroke="#000" stroke-width=".1"/><text x="3.96" y="4.275" fill="#000" font-family="sans" font-size=".57" font-style="normal" font-weight="400" text-anchor="start">R1</text><line x1="4.1" x2="7.188" y1="5.35" y2="2.615" stroke="#000" stroke-width=".1"/><polygon fill="#000" stroke="none" stroke-width=".1" points="7.354 2.802 7.563 2.283 7.023 2.428"/><polygon fill="none" stroke="#000" stroke-width=".1" points="7.354 2.802 7.563 2.283 7.023 2.428"/><ellipse cx="8.535" cy="7.15" fill="#FFF" stroke="none" rx="1.15" ry="1.15"/><ellipse cx="8.535" cy="7.15" fill="none" stroke="#000" stroke-width=".1" rx="1.15" ry="1.15"/><ellipse cx="8.535" cy="7.15" fill="none" stroke="#000" stroke-width=".1" rx="1.15" ry="1.15"/><text x="8.285" y="7.3" fill="#000" font-family="sans" font-size=".6" font-style="normal" font-weight="400" text-anchor="start">P1</text><line x1="7.385" x2="4.561" y1="7.15" y2="6.286" stroke="#000" stroke-width=".1"/><polygon fill="#000" stroke="none" stroke-width=".1" points="4.634 6.047 4.083 6.14 4.488 6.525"/><polygon fill="none" stroke="#000" stroke-width=".1" points="4.634 6.047 4.083 6.14 4.488 6.525"/><rect width="2.85" height="2.25" x="2.69" y="8.1" fill="#FFF" stroke="none" stroke-width="0"/><rect width="2.85" height="2.25" x="2.69" y="8.1" fill="none" stroke="#000" stroke-width=".1"/><text x="3.915" y="7.825" fill="#000" font-family="sans" font-size=".57" font-style="normal" font-weight="400" text-anchor="start">R2</text><line x1="4.037" x2="6.921" y1="9.275" y2="7.445" stroke="#000" stroke-width=".1"/><polygon fill="#000" stroke="none" stroke-width=".1" points="7.055 7.656 7.343 7.177 6.787 7.234"/><polygon fill="none" stroke="#000" stroke-width=".1" points="7.055 7.656 7.343 7.177 6.787 7.234"/><rect width="2.85" height="2.25" x="2.675" y="11.3" fill="#FFF" stroke="none" stroke-width="0"/><rect width="2.85" height="2.25" x="2.675" y="11.3" fill="none" stroke="#000" stroke-width=".1"/><text x="3.9" y="11.075" fill="#000" font-family="sans" font-size=".57" font-style="normal" font-weight="400" text-anchor="start">R3</text><ellipse cx="8.39" cy="12.45" fill="#FFF" stroke="none" rx="1.15" ry="1.15"/><ellipse cx="8.39" cy="12.45" fill="none" stroke="#000" stroke-width=".1" rx="1.15" ry="1.15"/><ellipse cx="8.39" cy="12.45" fill="none" stroke="#000" stroke-width=".1" rx="1.15" ry="1.15"/><text x="8.19" y="12.65" fill="#000" font-family="sans" font-size=".6" font-style="normal" font-weight="400" text-anchor="start">P2</text><line x1="4.17" x2="6.706" y1="11.7" y2="12.319" stroke="#000" stroke-width=".1"/><polygon fill="#000" stroke="none" stroke-width=".1" points="6.646 12.562 7.191 12.438 6.765 12.077"/><polygon fill="none" stroke="#000" stroke-width=".1" points="6.646 12.562 7.191 12.438 6.765 12.077"/><ellipse cx="4.037" cy="9.262" fill="none" stroke="#000" stroke-width=".3" rx=".012" ry=".012"/><ellipse cx="4.037" cy="9.262" fill="none" stroke="#000" stroke-width=".3" rx=".012" ry=".012"/><ellipse cx="4.115" cy="2.162" fill="none" stroke="#000" stroke-width=".3" rx=".012" ry=".012"/><ellipse cx="4.115" cy="2.162" fill="none" stroke="#000" stroke-width=".3" rx=".012" ry=".012"/><ellipse cx="4.1" cy="5.362" fill="none" stroke="#000" stroke-width=".3" rx=".012" ry=".012"/><ellipse cx="4.1" cy="5.362" fill="none" stroke="#000" stroke-width=".3" rx=".012" ry=".012"/><ellipse cx="4.035" cy="6.112" fill="none" stroke="#000" stroke-width=".3" rx=".012" ry=".012"/><ellipse cx="4.035" cy="6.112" fill="none" stroke="#000" stroke-width=".3" rx=".012" ry=".012"/><ellipse cx="4.17" cy="11.712" fill="none" stroke="#000" stroke-width=".3" rx=".012" ry=".012"/><ellipse cx="4.17" cy="11.712" fill="none" stroke="#000" stroke-width=".3" rx=".012" ry=".012"/><ellipse cx="4.205" cy="13.062" fill="none" stroke="#000" stroke-width=".3" rx=".012" ry=".012"/><ellipse cx="4.205" cy="13.062" fill="none" stroke="#000" stroke-width=".3" rx=".012" ry=".012"/><ellipse cx="4.19" cy="12.462" fill="none" stroke="#000" stroke-width=".3" rx=".012" ry=".012"/><ellipse cx="4.19" cy="12.462" fill="none" stroke="#000" stroke-width=".3" rx=".012" ry=".012"/></svg>